<svg xmlns="http://www.w3.org/2000/svg" xmlns:xlink="http://www.w3.org/1999/xlink" contentStyleType="text/css" data-diagram-type="SEQUENCE" height="1952px" preserveAspectRatio="none" style="width:1454px;height:1952px;background:#FAFAFA;" version="1.1" viewBox="0 0 1454 1952" width="1454px" zoomAndPan="magnify"><title>Bot Context Assembly Flow (on_message &#8594; Gemini)</title><defs/><g><rect fill="#FAFAFA" height="1952" style="stroke:none;stroke-width:1;" width="1454" x="0" y="0"/><text fill="#000000" font-family="sans-serif" font-size="14" font-weight="bold" lengthAdjust="spacing" textLength="406.4033" x="519.8208" y="27.9951">Bot Context Assembly Flow (on_message &#8594; Gemini)</text><rect fill="none" height="250.6719" style="stroke:#000000;stroke-width:1.5;" width="1320.8779" x="10" y="579.6172"/><rect fill="none" height="59.2656" style="stroke:#000000;stroke-width:1.5;" width="386.1978" x="247.832" y="1133.9297"/><rect fill="none" height="134.1406" style="stroke:#000000;stroke-width:1.5;" width="353.8862" x="679.2271" y="1413.3906"/><g><title>Discord</title><rect fill="#000000" fill-opacity="0.00000" height="1737.5" width="8" x="66.6782" y="120.8906"/><line style="stroke:#888888;stroke-width:0.5;stroke-dasharray:5,5;" x1="70" x2="70" y1="120.8906" y2="1858.3906"/></g><g><title>bot.py</title><rect fill="#000000" fill-opacity="0.00000" height="1737.5" width="8" x="283.1138" y="120.8906"/><line style="stroke:#888888;stroke-width:0.5;stroke-dasharray:5,5;" x1="286.832" x2="286.832" y1="120.8906" y2="1858.3906"/></g><g><title>memory.py</title><rect fill="#000000" fill-opacity="0.00000" height="1737.5" width="8" x="516.1079" y="120.8906"/><line style="stroke:#888888;stroke-width:0.5;stroke-dasharray:5,5;" x1="520.0493" x2="520.0493" y1="120.8906" y2="1858.3906"/></g><g><title>members.py</title><rect fill="#000000" fill-opacity="0.00000" height="1737.5" width="8" x="624.1968" y="120.8906"/><line style="stroke:#888888;stroke-width:0.5;stroke-dasharray:5,5;" x1="628.1665" x2="628.1665" y1="120.8906" y2="1858.3906"/></g><g><title>gemini.py</title><rect fill="#000000" fill-opacity="0.00000" height="1737.5" width="8" x="737.1118" y="120.8906"/><line style="stroke:#888888;stroke-width:0.5;stroke-dasharray:5,5;" x1="740.2271" x2="740.2271" y1="120.8906" y2="1858.3906"/></g><g><title>prompt...md</title><rect fill="#000000" fill-opacity="0.00000" height="1737.5" width="8" x="967.1567" y="120.8906"/><line style="stroke:#888888;stroke-width:0.5;stroke-dasharray:5,5;" x1="970.2002" x2="970.2002" y1="120.8906" y2="1858.3906"/></g><g><title>.gemini.</title><rect fill="#000000" fill-opacity="0.00000" height="1737.5" width="8" x="1070.9072" y="120.8906"/><line style="stroke:#888888;stroke-width:0.5;stroke-dasharray:5,5;" x1="1074.1133" x2="1074.1133" y1="120.8906" y2="1858.3906"/></g><g><title>data.members.</title><rect fill="#000000" fill-opacity="0.00000" height="1737.5" width="8" x="1179.4043" y="120.8906"/><line style="stroke:#888888;stroke-width:0.5;stroke-dasharray:5,5;" x1="1182.7012" x2="1182.7012" y1="120.8906" y2="1858.3906"/></g><g><title>skills...</title><rect fill="#000000" fill-opacity="0.00000" height="1737.5" width="8" x="1281.4927" y="120.8906"/><line style="stroke:#888888;stroke-width:0.5;stroke-dasharray:5,5;" x1="1285.1074" x2="1285.1074" y1="120.8906" y2="1858.3906"/></g><g class="participant participant-head" data-participant="DC"><rect fill="#EEEEFF" height="46.5938" rx="2.5" ry="2.5" style="stroke:#555555;stroke-width:0.5;" width="101.3564" x="20" y="73.2969"/><text fill="#000000" font-family="sans-serif" font-size="14" lengthAdjust="spacing" textLength="52.8691" x="44.2437" y="93.292">Discord</text><text fill="#000000" font-family="sans-serif" font-size="14" lengthAdjust="spacing" textLength="87.3564" x="27" y="109.5889">on_message</text></g><g class="participant participant-tail" data-participant="DC"><rect fill="#EEEEFF" height="46.5938" rx="2.5" ry="2.5" style="stroke:#555555;stroke-width:0.5;" width="101.3564" x="20" y="1857.3906"/><text fill="#000000" font-family="sans-serif" font-size="14" lengthAdjust="spacing" textLength="52.8691" x="44.2437" y="1877.3857">Discord</text><text fill="#000000" font-family="sans-serif" font-size="14" lengthAdjust="spacing" textLength="87.3564" x="27" y="1893.6826">on_message</text></g><g class="participant participant-head" data-participant="BOT"><rect fill="#EEEEFF" height="30.2969" rx="2.5" ry="2.5" style="stroke:#555555;stroke-width:0.5;" width="58.5635" x="257.832" y="89.5938"/><text fill="#000000" font-family="sans-serif" font-size="14" lengthAdjust="spacing" textLength="44.5635" x="264.832" y="109.5889">bot.py</text></g><g class="participant participant-tail" data-participant="BOT"><rect fill="#EEEEFF" height="30.2969" rx="2.5" ry="2.5" style="stroke:#555555;stroke-width:0.5;" width="58.5635" x="257.832" y="1857.3906"/><text fill="#000000" font-family="sans-serif" font-size="14" lengthAdjust="spacing" textLength="44.5635" x="264.832" y="1877.3857">bot.py</text></g><g class="participant participant-head" data-participant="MEM"><rect fill="#EEEEFF" height="46.5938" rx="2.5" ry="2.5" style="stroke:#555555;stroke-width:0.5;" width="94.1172" x="473.0493" y="73.2969"/><text fill="#000000" font-family="sans-serif" font-size="14" lengthAdjust="spacing" textLength="80.1172" x="480.0493" y="93.292">memory.py</text><text fill="#000000" font-family="sans-serif" font-size="14" lengthAdjust="spacing" textLength="56.6221" x="491.7969" y="109.5889">(SQLite)</text></g><g class="participant participant-tail" data-participant="MEM"><rect fill="#EEEEFF" height="46.5938" rx="2.5" ry="2.5" style="stroke:#555555;stroke-width:0.5;" width="94.1172" x="473.0493" y="1857.3906"/><text fill="#000000" font-family="sans-serif" font-size="14" lengthAdjust="spacing" textLength="80.1172" x="480.0493" y="1877.3857">memory.py</text><text fill="#000000" font-family="sans-serif" font-size="14" lengthAdjust="spacing" textLength="56.6221" x="491.7969" y="1893.6826">(SQLite)</text></g><g class="participant participant-head" data-participant="MEMB"><rect fill="#EEEEFF" height="30.2969" rx="2.5" ry="2.5" style="stroke:#555555;stroke-width:0.5;" width="102.0605" x="577.1665" y="89.5938"/><text fill="#000000" font-family="sans-serif" font-size="14" lengthAdjust="spacing" textLength="88.0605" x="584.1665" y="109.5889">members.py</text></g><g class="participant participant-tail" data-participant="MEMB"><rect fill="#EEEEFF" height="30.2969" rx="2.5" ry="2.5" style="stroke:#555555;stroke-width:0.5;" width="102.0605" x="577.1665" y="1857.3906"/><text fill="#000000" font-family="sans-serif" font-size="14" lengthAdjust="spacing" textLength="88.0605" x="584.1665" y="1877.3857">members.py</text></g><g class="participant participant-head" data-participant="GEM"><rect fill="#EEEEFF" height="46.5938" rx="2.5" ry="2.5" style="stroke:#555555;stroke-width:0.5;" width="103.7695" x="689.2271" y="73.2969"/><text fill="#000000" font-family="sans-serif" font-size="14" lengthAdjust="spacing" textLength="69.4121" x="706.4058" y="93.292">gemini.py</text><text fill="#000000" font-family="sans-serif" font-size="14" lengthAdjust="spacing" textLength="89.7695" x="696.2271" y="109.5889">call_gemini()</text></g><g class="participant participant-tail" data-participant="GEM"><rect fill="#EEEEFF" height="46.5938" rx="2.5" ry="2.5" style="stroke:#555555;stroke-width:0.5;" width="103.7695" x="689.2271" y="1857.3906"/><text fill="#000000" font-family="sans-serif" font-size="14" lengthAdjust="spacing" textLength="69.4121" x="706.4058" y="1877.3857">gemini.py</text><text fill="#000000" font-family="sans-serif" font-size="14" lengthAdjust="spacing" textLength="89.7695" x="696.2271" y="1893.6826">call_gemini()</text></g><g class="participant participant-head" data-participant="PROMPTS"><rect fill="#EEEEFF" height="30.2969" rx="2.5" ry="2.5" style="stroke:#555555;stroke-width:0.5;" width="103.9131" x="919.2002" y="89.5938"/><text fill="#000000" font-family="sans-serif" font-size="14" lengthAdjust="spacing" textLength="89.9131" x="926.2002" y="109.5889">prompt/*.md</text></g><g class="participant participant-tail" data-participant="PROMPTS"><rect fill="#EEEEFF" height="30.2969" rx="2.5" ry="2.5" style="stroke:#555555;stroke-width:0.5;" width="103.9131" x="919.2002" y="1857.3906"/><text fill="#000000" font-family="sans-serif" font-size="14" lengthAdjust="spacing" textLength="89.9131" x="926.2002" y="1877.3857">prompt/*.md</text></g><g class="participant participant-head" data-participant="SYS"><text fill="#000000" font-family="sans-serif" font-size="14" lengthAdjust="spacing" textLength="56.957" x="1043.4287" y="101.292">.gemini/</text><text fill="#000000" font-family="sans-serif" font-size="14" lengthAdjust="spacing" textLength="77.5879" x="1033.1133" y="117.5889">system.md</text><path d="M1056.9072,52.2969 C1056.9072,42.2969 1074.9072,42.2969 1074.9072,42.2969 C1074.9072,42.2969 1092.9072,42.2969 1092.9072,52.2969 L1092.9072,78.2969 C1092.9072,88.2969 1074.9072,88.2969 1074.9072,88.2969 C1074.9072,88.2969 1056.9072,88.2969 1056.9072,78.2969 L1056.9072,52.2969" fill="#E2E2F0" style="stroke:#181818;stroke-width:0.5;"/><path d="M1056.9072,52.2969 C1056.9072,62.2969 1074.9072,62.2969 1074.9072,62.2969 C1074.9072,62.2969 1092.9072,62.2969 1092.9072,52.2969" fill="none" style="stroke:#181818;stroke-width:0.5;"/></g><g class="participant participant-tail" data-participant="SYS"><text fill="#000000" font-family="sans-serif" font-size="14" lengthAdjust="spacing" textLength="56.957" x="1043.4287" y="1870.3857">.gemini/</text><text fill="#000000" font-family="sans-serif" font-size="14" lengthAdjust="spacing" textLength="77.5879" x="1033.1133" y="1886.6826">system.md</text><path d="M1056.9072,1899.9844 C1056.9072,1889.9844 1074.9072,1889.9844 1074.9072,1889.9844 C1074.9072,1889.9844 1092.9072,1889.9844 1092.9072,1899.9844 L1092.9072,1925.9844 C1092.9072,1935.9844 1074.9072,1935.9844 1074.9072,1935.9844 C1074.9072,1935.9844 1056.9072,1935.9844 1056.9072,1925.9844 L1056.9072,1899.9844" fill="#E2E2F0" style="stroke:#181818;stroke-width:0.5;"/><path d="M1056.9072,1899.9844 C1056.9072,1909.9844 1074.9072,1909.9844 1074.9072,1909.9844 C1074.9072,1909.9844 1092.9072,1909.9844 1092.9072,1899.9844" fill="none" style="stroke:#181818;stroke-width:0.5;"/></g><g class="participant participant-head" data-participant="MFILES"><text fill="#000000" font-family="sans-serif" font-size="14" lengthAdjust="spacing" textLength="107.4063" x="1126.7012" y="101.292">data/members/</text><text fill="#000000" font-family="sans-serif" font-size="14" lengthAdjust="spacing" textLength="63.2119" x="1148.7983" y="117.5889">&lt;id&gt;.md</text><path d="M1165.4043,52.2969 C1165.4043,42.2969 1183.4043,42.2969 1183.4043,42.2969 C1183.4043,42.2969 1201.4043,42.2969 1201.4043,52.2969 L1201.4043,78.2969 C1201.4043,88.2969 1183.4043,88.2969 1183.4043,88.2969 C1183.4043,88.2969 1165.4043,88.2969 1165.4043,78.2969 L1165.4043,52.2969" fill="#E2E2F0" style="stroke:#181818;stroke-width:0.5;"/><path d="M1165.4043,52.2969 C1165.4043,62.2969 1183.4043,62.2969 1183.4043,62.2969 C1183.4043,62.2969 1201.4043,62.2969 1201.4043,52.2969" fill="none" style="stroke:#181818;stroke-width:0.5;"/></g><g class="participant participant-tail" data-participant="MFILES"><text fill="#000000" font-family="sans-serif" font-size="14" lengthAdjust="spacing" textLength="107.4063" x="1126.7012" y="1870.3857">data/members/</text><text fill="#000000" font-family="sans-serif" font-size="14" lengthAdjust="spacing" textLength="63.2119" x="1148.7983" y="1886.6826">&lt;id&gt;.md</text><path d="M1165.4043,1899.9844 C1165.4043,1889.9844 1183.4043,1889.9844 1183.4043,1889.9844 C1183.4043,1889.9844 1201.4043,1889.9844 1201.4043,1899.9844 L1201.4043,1925.9844 C1201.4043,1935.9844 1183.4043,1935.9844 1183.4043,1935.9844 C1183.4043,1935.9844 1165.4043,1935.9844 1165.4043,1925.9844 L1165.4043,1899.9844" fill="#E2E2F0" style="stroke:#181818;stroke-width:0.5;"/><path d="M1165.4043,1899.9844 C1165.4043,1909.9844 1183.4043,1909.9844 1183.4043,1909.9844 C1183.4043,1909.9844 1201.4043,1909.9844 1201.4043,1899.9844" fill="none" style="stroke:#181818;stroke-width:0.5;"/></g><g class="participant participant-head" data-participant="SKILL"><text fill="#000000" font-family="sans-serif" font-size="14" lengthAdjust="spacing" textLength="50.7979" x="1257.0938" y="101.292">skills/*/</text><text fill="#000000" font-family="sans-serif" font-size="14" lengthAdjust="spacing" textLength="64.7705" x="1250.1074" y="117.5889">SKILL.md</text><path d="M1267.4927,52.2969 C1267.4927,42.2969 1285.4927,42.2969 1285.4927,42.2969 C1285.4927,42.2969 1303.4927,42.2969 1303.4927,52.2969 L1303.4927,78.2969 C1303.4927,88.2969 1285.4927,88.2969 1285.4927,88.2969 C1285.4927,88.2969 1267.4927,88.2969 1267.4927,78.2969 L1267.4927,52.2969" fill="#E2E2F0" style="stroke:#181818;stroke-width:0.5;"/><path d="M1267.4927,52.2969 C1267.4927,62.2969 1285.4927,62.2969 1285.4927,62.2969 C1285.4927,62.2969 1303.4927,62.2969 1303.4927,52.2969" fill="none" style="stroke:#181818;stroke-width:0.5;"/></g><g class="participant participant-tail" data-participant="SKILL"><text fill="#000000" font-family="sans-serif" font-size="14" lengthAdjust="spacing" textLength="50.7979" x="1257.0938" y="1870.3857">skills/*/</text><text fill="#000000" font-family="sans-serif" font-size="14" lengthAdjust="spacing" textLength="64.7705" x="1250.1074" y="1886.6826">SKILL.md</text><path d="M1267.4927,1899.9844 C1267.4927,1889.9844 1285.4927,1889.9844 1285.4927,1889.9844 C1285.4927,1889.9844 1303.4927,1889.9844 1303.4927,1899.9844 L1303.4927,1925.9844 C1303.4927,1935.9844 1285.4927,1935.9844 1285.4927,1935.9844 C1285.4927,1935.9844 1267.4927,1935.9844 1267.4927,1925.9844 L1267.4927,1899.9844" fill="#E2E2F0" style="stroke:#181818;stroke-width:0.5;"/><path d="M1267.4927,1899.9844 C1267.4927,1909.9844 1285.4927,1909.9844 1285.4927,1909.9844 C1285.4927,1909.9844 1303.4927,1909.9844 1303.4927,1899.9844" fill="none" style="stroke:#181818;stroke-width:0.5;"/></g><rect fill="#EEEEEE" height="3" style="stroke:#EEEEEE;stroke-width:1;" width="1447.0449" x="0" y="151.457"/><line style="stroke:#000000;stroke-width:1;" x1="0" x2="1447.0449" y1="151.457" y2="151.457"/><line style="stroke:#000000;stroke-width:1;" x1="0" x2="1447.0449" y1="154.457" y2="154.457"/><rect fill="#EEEEEE" height="23.1328" style="stroke:#000000;stroke-width:2;" width="219.2007" x="613.9221" y="140.8906"/><text fill="#000000" font-family="sans-serif" font-size="13" font-weight="bold" lengthAdjust="spacing" textLength="200.6748" x="619.9221" y="156.9575">1. Gate checks (&#26089;&#26399; return)</text><g class="message" data-participant-1="DC" data-participant-2="BOT"><polygon fill="#444444" points="275.1138,191.1563,285.1138,195.1563,275.1138,199.1563,279.1138,195.1563" style="stroke:#444444;stroke-width:1;"/><line style="stroke:#444444;stroke-width:1;" x1="70.6782" x2="281.1138" y1="195.1563" y2="195.1563"/><text fill="#000000" font-family="sans-serif" font-size="13" lengthAdjust="spacing" textLength="149.6841" x="77.6782" y="190.0903">on_message(message)</text></g><g class="message" data-participant-1="BOT" data-participant-2="BOT"><line style="stroke:#444444;stroke-width:1;" x1="287.1138" x2="329.1138" y1="224.2891" y2="224.2891"/><line style="stroke:#444444;stroke-width:1;" x1="329.1138" x2="329.1138" y1="224.2891" y2="237.2891"/><line style="stroke:#444444;stroke-width:1;" x1="288.1138" x2="329.1138" y1="237.2891" y2="237.2891"/><polygon fill="#444444" points="298.1138,233.2891,288.1138,237.2891,298.1138,241.2891,294.1138,237.2891" style="stroke:#444444;stroke-width:1;"/><text fill="#000000" font-family="sans-serif" font-size="13" lengthAdjust="spacing" textLength="103.7969" x="294.1138" y="219.2231">is self? &#8594; return</text></g><g class="message" data-participant-1="BOT" data-participant-2="BOT"><line style="stroke:#444444;stroke-width:1;" x1="287.1138" x2="329.1138" y1="266.4219" y2="266.4219"/><line style="stroke:#444444;stroke-width:1;" x1="329.1138" x2="329.1138" y1="266.4219" y2="279.4219"/><line style="stroke:#444444;stroke-width:1;" x1="288.1138" x2="329.1138" y1="279.4219" y2="279.4219"/><polygon fill="#444444" points="298.1138,275.4219,288.1138,279.4219,298.1138,283.4219,294.1138,279.4219" style="stroke:#444444;stroke-width:1;"/><text fill="#000000" font-family="sans-serif" font-size="13" lengthAdjust="spacing" textLength="76.9526" x="294.1138" y="261.356">mentioned?</text></g><g class="message" data-participant-1="BOT" data-participant-2="MEM"><polygon fill="#444444" points="508.1079,307.5547,518.1079,311.5547,508.1079,315.5547,512.1079,311.5547" style="stroke:#444444;stroke-width:1;"/><line style="stroke:#444444;stroke-width:1;" x1="287.1138" x2="514.1079" y1="311.5547" y2="311.5547"/><text fill="#000000" font-family="sans-serif" font-size="13" lengthAdjust="spacing" textLength="140.5371" x="294.1138" y="306.4888">is_silenced(DB_PATH)</text></g><path d="M525,292.4219 L525,317.4219 L732,317.4219 L732,302.4219 L722,292.4219 L525,292.4219" fill="#FEFFDD" style="stroke:#181818;stroke-width:0.5;"/><path d="M722,292.4219 L722,302.4219 L732,302.4219 L722,292.4219" fill="#FEFFDD" style="stroke:#181818;stroke-width:0.5;"/><text fill="#000000" font-family="sans-serif" font-size="13" lengthAdjust="spacing" textLength="186.4879" x="531" y="309.4888">&#38750; mention &#19988;&#38748;&#40664;&#20013; &#8594; return</text><g class="message" data-participant-1="BOT" data-participant-2="BOT"><line style="stroke:#444444;stroke-width:1;" x1="287.1138" x2="329.1138" y1="358.8203" y2="358.8203"/><line style="stroke:#444444;stroke-width:1;" x1="329.1138" x2="329.1138" y1="358.8203" y2="371.8203"/><line style="stroke:#444444;stroke-width:1;" x1="288.1138" x2="329.1138" y1="371.8203" y2="371.8203"/><polygon fill="#444444" points="298.1138,367.8203,288.1138,371.8203,298.1138,375.8203,294.1138,371.8203" style="stroke:#444444;stroke-width:1;"/><text fill="#000000" font-family="sans-serif" font-size="13" lengthAdjust="spacing" textLength="144.7456" x="294.1138" y="338.6216">last_was_bot? (60s &#20839;)</text><text fill="#000000" font-family="sans-serif" font-size="13" lengthAdjust="spacing" textLength="147.2783" x="294.1138" y="353.7544">random rate? &#8594; return</text></g><rect fill="#EEEEEE" height="3" style="stroke:#EEEEEE;stroke-width:1;" width="1447.0449" x="0" y="400.3867"/><line style="stroke:#000000;stroke-width:1;" x1="0" x2="1447.0449" y1="400.3867" y2="400.3867"/><line style="stroke:#000000;stroke-width:1;" x1="0" x2="1447.0449" y1="403.3867" y2="403.3867"/><rect fill="#EEEEEE" height="23.1328" style="stroke:#000000;stroke-width:2;" width="242.9092" x="602.0679" y="389.8203"/><text fill="#000000" font-family="sans-serif" font-size="13" font-weight="bold" lengthAdjust="spacing" textLength="224.3833" x="608.0679" y="405.8872">2. Tool dispatch (&#20677; @mention)</text><g class="message" data-participant-1="BOT" data-participant-2="BOT"><line style="stroke:#444444;stroke-width:1;" x1="287.1138" x2="329.1138" y1="444.0859" y2="444.0859"/><line style="stroke:#444444;stroke-width:1;" x1="329.1138" x2="329.1138" y1="444.0859" y2="457.0859"/><line style="stroke:#444444;stroke-width:1;" x1="288.1138" x2="329.1138" y1="457.0859" y2="457.0859"/><polygon fill="#444444" points="298.1138,453.0859,288.1138,457.0859,298.1138,461.0859,294.1138,457.0859" style="stroke:#444444;stroke-width:1;"/><text fill="#000000" font-family="sans-serif" font-size="13" lengthAdjust="spacing" textLength="174.7383" x="294.1138" y="439.02">fetch recent_lines (history)</text></g><g class="message" data-participant-1="BOT" data-participant-2="SKILL"><polygon fill="#444444" points="1273.4927,492.7852,1283.4927,496.7852,1273.4927,500.7852,1277.4927,496.7852" style="stroke:#444444;stroke-width:1;"/><line style="stroke:#444444;stroke-width:1;" x1="287.1138" x2="1279.4927" y1="496.7852" y2="496.7852"/><text fill="#000000" font-family="sans-serif" font-size="13" lengthAdjust="spacing" textLength="148.6113" x="294.1138" y="491.7192">load_skill_descriptors()</text></g><path d="M1290,470.0859 L1290,510.0859 L1433,510.0859 L1433,480.0859 L1423,470.0859 L1290,470.0859" fill="#FEFFDD" style="stroke:#181818;stroke-width:0.5;"/><path d="M1423,470.0859 L1423,480.0859 L1433,480.0859 L1423,470.0859" fill="#FEFFDD" style="stroke:#181818;stroke-width:0.5;"/><text fill="#000000" font-family="sans-serif" font-size="13" lengthAdjust="spacing" textLength="107.3135" x="1296" y="487.1528">skills/*/SKILL.md</text><text fill="#000000" font-family="sans-serif" font-size="13" lengthAdjust="spacing" textLength="122.0591" x="1296" y="502.2856">bypasses_llm: true</text><g class="message" data-participant-1="BOT" data-participant-2="BOT"><line style="stroke:#444444;stroke-width:1;" x1="287.1138" x2="329.1138" y1="551.6172" y2="551.6172"/><line style="stroke:#444444;stroke-width:1;" x1="329.1138" x2="329.1138" y1="551.6172" y2="564.6172"/><line style="stroke:#444444;stroke-width:1;" x1="288.1138" x2="329.1138" y1="564.6172" y2="564.6172"/><polygon fill="#444444" points="298.1138,560.6172,288.1138,564.6172,298.1138,568.6172,294.1138,564.6172" style="stroke:#444444;stroke-width:1;"/><text fill="#000000" font-family="sans-serif" font-size="13" lengthAdjust="spacing" textLength="159.3071" x="294.1138" y="531.4185">route_tool_cli(user_msg)</text><text fill="#000000" font-family="sans-serif" font-size="13" lengthAdjust="spacing" textLength="189.8076" x="294.1138" y="546.5513">&#8594; gemini &#21028;&#26039; tool_router.md</text></g><path d="M10,579.6172 L74.4429,579.6172 L74.4429,586.75 L64.4429,596.75 L10,596.75 L10,579.6172" fill="#EEEEEE" style="stroke:#000000;stroke-width:1.5;"/><rect fill="none" height="250.6719" style="stroke:#000000;stroke-width:1.5;" width="1320.8779" x="10" y="579.6172"/><text fill="#000000" font-family="sans-serif" font-size="13" font-weight="bold" lengthAdjust="spacing" textLength="19.4429" x="25" y="592.6841">alt</text><text fill="#000000" font-family="sans-serif" font-size="11" font-weight="bold" lengthAdjust="spacing" textLength="85.4434" x="89.4429" y="591.8276">[tool = recall]</text><g class="message" data-participant-1="BOT" data-participant-2="MEM"><polygon fill="#444444" points="508.1079,613.8828,518.1079,617.8828,508.1079,621.8828,512.1079,617.8828" style="stroke:#444444;stroke-width:1;"/><line style="stroke:#444444;stroke-width:1;" x1="287.1138" x2="514.1079" y1="617.8828" y2="617.8828"/><text fill="#000000" font-family="sans-serif" font-size="13" lengthAdjust="spacing" textLength="181.562" x="294.1138" y="612.8169">search_sessions_for_recall()</text></g><g class="message" data-participant-1="BOT" data-participant-2="DC"><polygon fill="#444444" points="81.6782,643.0156,71.6782,647.0156,81.6782,651.0156,77.6782,647.0156" style="stroke:#444444;stroke-width:1;"/><line style="stroke:#444444;stroke-width:1;" x1="75.6782" x2="286.1138" y1="647.0156" y2="647.0156"/><text fill="#000000" font-family="sans-serif" font-size="13" lengthAdjust="spacing" textLength="79.2314" x="87.6782" y="641.9497">send results</text></g><g class="message" data-participant-1="BOT" data-participant-2="DC"><polygon fill="#444444" points="81.6782,672.1484,71.6782,676.1484,81.6782,680.1484,77.6782,676.1484" style="stroke:#444444;stroke-width:1;"/><line style="stroke:#444444;stroke-width:1;stroke-dasharray:2,2;" x1="75.6782" x2="286.1138" y1="676.1484" y2="676.1484"/><text fill="#000000" font-family="sans-serif" font-size="13" lengthAdjust="spacing" textLength="40.2632" x="87.6782" y="671.0825">return</text></g><line style="stroke:#000000;stroke-width:1;stroke-dasharray:2,2;" x1="10" x2="1330.8779" y1="685.1484" y2="685.1484"/><text fill="#000000" font-family="sans-serif" font-size="11" font-weight="bold" lengthAdjust="spacing" textLength="94.4346" x="15" y="695.3589">[tool = silence]</text><g class="message" data-participant-1="BOT" data-participant-2="MEM"><polygon fill="#444444" points="508.1079,716.0859,518.1079,720.0859,508.1079,724.0859,512.1079,720.0859" style="stroke:#444444;stroke-width:1;"/><line style="stroke:#444444;stroke-width:1;" x1="287.1138" x2="514.1079" y1="720.0859" y2="720.0859"/><text fill="#000000" font-family="sans-serif" font-size="13" lengthAdjust="spacing" textLength="181.0479" x="294.1138" y="715.02">set_silence() / end_silence()</text></g><g class="message" data-participant-1="BOT" data-participant-2="DC"><polygon fill="#444444" points="81.6782,745.2188,71.6782,749.2188,81.6782,753.2188,77.6782,749.2188" style="stroke:#444444;stroke-width:1;"/><line style="stroke:#444444;stroke-width:1;stroke-dasharray:2,2;" x1="75.6782" x2="286.1138" y1="749.2188" y2="749.2188"/><text fill="#000000" font-family="sans-serif" font-size="13" lengthAdjust="spacing" textLength="40.2632" x="87.6782" y="744.1528">return</text></g><line style="stroke:#000000;stroke-width:1;stroke-dasharray:2,2;" x1="10" x2="1330.8779" y1="758.2188" y2="758.2188"/><text fill="#000000" font-family="sans-serif" font-size="11" font-weight="bold" lengthAdjust="spacing" textLength="119.3242" x="15" y="768.4292">[tool = joke-rating]</text><g class="message" data-participant-1="BOT" data-participant-2="SKILL"><polygon fill="#444444" points="1273.4927,789.1563,1283.4927,793.1563,1273.4927,797.1563,1277.4927,793.1563" style="stroke:#444444;stroke-width:1;"/><line style="stroke:#444444;stroke-width:1;" x1="287.1138" x2="1279.4927" y1="793.1563" y2="793.1563"/><text fill="#000000" font-family="sans-serif" font-size="13" lengthAdjust="spacing" textLength="190.4678" x="294.1138" y="788.0903">load_skill_body("joke-rating")</text></g><g class="message" data-participant-1="BOT" data-participant-2="DC"><polygon fill="#444444" points="81.6782,818.2891,71.6782,822.2891,81.6782,826.2891,77.6782,822.2891" style="stroke:#444444;stroke-width:1;"/><line style="stroke:#444444;stroke-width:1;stroke-dasharray:2,2;" x1="75.6782" x2="286.1138" y1="822.2891" y2="822.2891"/><text fill="#000000" font-family="sans-serif" font-size="13" lengthAdjust="spacing" textLength="40.2632" x="87.6782" y="817.2231">return</text></g><rect fill="#EEEEEE" height="3" style="stroke:#EEEEEE;stroke-width:1;" width="1447.0449" x="0" y="857.8555"/><line style="stroke:#000000;stroke-width:1;" x1="0" x2="1447.0449" y1="857.8555" y2="857.8555"/><line style="stroke:#000000;stroke-width:1;" x1="0" x2="1447.0449" y1="860.8555" y2="860.8555"/><rect fill="#EEEEEE" height="23.1328" style="stroke:#000000;stroke-width:2;" width="167.7656" x="639.6396" y="847.2891"/><text fill="#000000" font-family="sans-serif" font-size="13" font-weight="bold" lengthAdjust="spacing" textLength="149.2397" x="645.6396" y="863.356">3. Context assembly</text><g class="message" data-participant-1="BOT" data-participant-2="MEM"><polygon fill="#444444" points="508.1079,915.6875,518.1079,919.6875,508.1079,923.6875,512.1079,919.6875" style="stroke:#444444;stroke-width:1;"/><line style="stroke:#444444;stroke-width:1;" x1="287.1138" x2="514.1079" y1="919.6875" y2="919.6875"/><text fill="#000000" font-family="sans-serif" font-size="13" lengthAdjust="spacing" textLength="207.0923" x="294.1138" y="899.4888">get_member_history(sender_id)</text><text fill="#000000" font-family="sans-serif" font-size="13" lengthAdjust="spacing" textLength="161.5161" x="294.1138" y="914.6216">+ search_memory(topic)</text></g><path d="M525,885.4219 L525,925.4219 L701,925.4219 L701,895.4219 L691,885.4219 L525,885.4219" fill="#FEFFDD" style="stroke:#181818;stroke-width:0.5;"/><path d="M691,885.4219 L691,895.4219 L701,895.4219 L691,885.4219" fill="#FEFFDD" style="stroke:#181818;stroke-width:0.5;"/><text fill="#000000" font-family="sans-serif" font-size="13" lengthAdjust="spacing" textLength="107.1484" x="531" y="902.4888">[Past messages]</text><text fill="#000000" font-family="sans-serif" font-size="13" lengthAdjust="spacing" textLength="155.0352" x="531" y="917.6216">[Topic-related sessions]</text><g class="message" data-participant-1="BOT" data-participant-2="MFILES"><polygon fill="#444444" points="1171.4043,960.7148,1181.4043,964.7148,1171.4043,968.7148,1175.4043,964.7148" style="stroke:#444444;stroke-width:1;"/><line style="stroke:#444444;stroke-width:1;" x1="287.1138" x2="1177.4043" y1="964.7148" y2="964.7148"/><text fill="#000000" font-family="sans-serif" font-size="13" lengthAdjust="spacing" textLength="208.1333" x="294.1138" y="959.6489">member_profiles.get(sender_id)</text></g><path d="M1188,935.6875 L1188,979.6875 L1436,979.6875 L1436,945.6875 L1426,935.6875 L1188,935.6875" fill="#FEFFDD" style="stroke:#181818;stroke-width:0.5;"/><path d="M1426,935.6875 L1426,945.6875 L1436,945.6875 L1426,935.6875" fill="#FEFFDD" style="stroke:#181818;stroke-width:0.5;"/><text fill="#000000" font-family="sans-serif" font-size="13" lengthAdjust="spacing" textLength="92.4536" x="1194" y="952.7544">sender_profile</text><text fill="#000000" font-family="sans-serif" font-size="17" font-weight="bold" lengthAdjust="spacing" textLength="227.6406" x="1194" y="971.6001">data/members/&lt;id&gt;.md</text><g class="message" data-participant-1="BOT" data-participant-2="MEMB"><polygon fill="#444444" points="616.1968,1002.7422,626.1968,1006.7422,616.1968,1010.7422,620.1968,1006.7422" style="stroke:#444444;stroke-width:1;"/><line style="stroke:#444444;stroke-width:1;" x1="287.1138" x2="622.1968" y1="1006.7422" y2="1006.7422"/><text fill="#000000" font-family="sans-serif" font-size="13" lengthAdjust="spacing" textLength="242.1187" x="294.1138" y="1001.6763">identify_members_via_llm(user_msg)</text></g><g class="message" data-participant-1="BOT" data-participant-2="MFILES"><polygon fill="#444444" points="1171.4043,1044.7695,1181.4043,1048.7695,1171.4043,1052.7695,1175.4043,1048.7695" style="stroke:#444444;stroke-width:1;"/><line style="stroke:#444444;stroke-width:1;" x1="287.1138" x2="1177.4043" y1="1048.7695" y2="1048.7695"/><text fill="#000000" font-family="sans-serif" font-size="13" lengthAdjust="spacing" textLength="208.2158" x="294.1138" y="1043.7036">load matched member .md files</text></g><path d="M1188,1019.7422 L1188,1063.7422 L1379,1063.7422 L1379,1029.7422 L1369,1019.7422 L1188,1019.7422" fill="#FEFFDD" style="stroke:#181818;stroke-width:0.5;"/><path d="M1369,1019.7422 L1369,1029.7422 L1379,1029.7422 L1369,1019.7422" fill="#FEFFDD" style="stroke:#181818;stroke-width:0.5;"/><text fill="#000000" font-family="sans-serif" font-size="13" lengthAdjust="spacing" textLength="93.7676" x="1194" y="1036.8091">group_context</text><text fill="#000000" font-family="sans-serif" font-size="17" font-weight="bold" lengthAdjust="spacing" textLength="170.7302" x="1194" y="1055.6548">&#34987;&#25552;&#21450;&#25104;&#21729;&#30340; profile</text><g class="message" data-participant-1="BOT" data-participant-2="BOT"><line style="stroke:#444444;stroke-width:1;" x1="287.1138" x2="329.1138" y1="1105.9297" y2="1105.9297"/><line style="stroke:#444444;stroke-width:1;" x1="329.1138" x2="329.1138" y1="1105.9297" y2="1118.9297"/><line style="stroke:#444444;stroke-width:1;" x1="288.1138" x2="329.1138" y1="1118.9297" y2="1118.9297"/><polygon fill="#444444" points="298.1138,1114.9297,288.1138,1118.9297,298.1138,1122.9297,294.1138,1118.9297" style="stroke:#444444;stroke-width:1;"/><text fill="#000000" font-family="sans-serif" font-size="13" lengthAdjust="spacing" textLength="166.2261" x="294.1138" y="1085.731">URL_RE.findall(user_msg)</text><text fill="#000000" font-family="sans-serif" font-size="13" lengthAdjust="spacing" textLength="155.4287" x="294.1138" y="1100.8638">(or scan history if none)</text></g><path d="M247.832,1133.9297 L312.2749,1133.9297 L312.2749,1141.0625 L302.2749,1151.0625 L247.832,1151.0625 L247.832,1133.9297" fill="#EEEEEE" style="stroke:#000000;stroke-width:1.5;"/><rect fill="none" height="59.2656" style="stroke:#000000;stroke-width:1.5;" width="386.1978" x="247.832" y="1133.9297"/><text fill="#000000" font-family="sans-serif" font-size="13" font-weight="bold" lengthAdjust="spacing" textLength="19.4429" x="262.832" y="1146.9966">alt</text><text fill="#000000" font-family="sans-serif" font-size="11" font-weight="bold" lengthAdjust="spacing" textLength="80.7222" x="327.2749" y="1146.1401">[URLs found]</text><g class="message" data-participant-1="BOT" data-participant-2="BOT"><line style="stroke:#444444;stroke-width:1;" x1="287.1138" x2="329.1138" y1="1172.1953" y2="1172.1953"/><line style="stroke:#444444;stroke-width:1;" x1="329.1138" x2="329.1138" y1="1172.1953" y2="1185.1953"/><line style="stroke:#444444;stroke-width:1;" x1="288.1138" x2="329.1138" y1="1185.1953" y2="1185.1953"/><polygon fill="#444444" points="298.1138,1181.1953,288.1138,1185.1953,298.1138,1189.1953,294.1138,1185.1953" style="stroke:#444444;stroke-width:1;"/><text fill="#000000" font-family="sans-serif" font-size="13" lengthAdjust="spacing" textLength="218.9941" x="294.1138" y="1167.1294">fetch_url_content() via Playwright</text></g><path d="M524.9941,1159.5625 L524.9941,1184.5625 L617.9941,1184.5625 L617.9941,1169.5625 L607.9941,1159.5625 L524.9941,1159.5625" fill="#FEFFDD" style="stroke:#181818;stroke-width:0.5;"/><path d="M607.9941,1159.5625 L607.9941,1169.5625 L617.9941,1169.5625 L607.9941,1159.5625" fill="#FEFFDD" style="stroke:#181818;stroke-width:0.5;"/><text fill="#000000" font-family="sans-serif" font-size="13" lengthAdjust="spacing" textLength="72.9219" x="530.9941" y="1176.6294">url_context</text><rect fill="#EEEEEE" height="3" style="stroke:#EEEEEE;stroke-width:1;" width="1447.0449" x="0" y="1220.7617"/><line style="stroke:#000000;stroke-width:1;" x1="0" x2="1447.0449" y1="1220.7617" y2="1220.7617"/><line style="stroke:#000000;stroke-width:1;" x1="0" x2="1447.0449" y1="1223.7617" y2="1223.7617"/><rect fill="#EEEEEE" height="23.1328" style="stroke:#000000;stroke-width:2;" width="253.3066" x="596.8691" y="1210.1953"/><text fill="#000000" font-family="sans-serif" font-size="13" font-weight="bold" lengthAdjust="spacing" textLength="234.7808" x="602.8691" y="1226.2622">4. Prompt assembly (gemini.py)</text><g class="message" data-participant-1="BOT" data-participant-2="GEM"><polygon fill="#444444" points="729.1118,1336.125,739.1118,1340.125,729.1118,1344.125,733.1118,1340.125" style="stroke:#444444;stroke-width:1;"/><line style="stroke:#444444;stroke-width:1;" x1="287.1138" x2="735.1118" y1="1340.125" y2="1340.125"/><text fill="#000000" font-family="sans-serif" font-size="13" lengthAdjust="spacing" textLength="78.2856" x="294.1138" y="1259.395">call_gemini(</text><text fill="#000000" font-family="sans-serif" font-size="13" lengthAdjust="spacing" textLength="119.6533" x="302.3784" y="1274.5278">history, user_msg,</text><text fill="#000000" font-family="sans-serif" font-size="13" lengthAdjust="spacing" textLength="159.1675" x="302.3784" y="1289.6606">memory, sender_profile,</text><text fill="#000000" font-family="sans-serif" font-size="13" lengthAdjust="spacing" textLength="179.0864" x="302.3784" y="1304.7935">group_context, url_context,</text><text fill="#000000" font-family="sans-serif" font-size="13" lengthAdjust="spacing" textLength="136.6333" x="302.3784" y="1319.9263">must_reply, deep_url</text><text fill="#000000" font-family="sans-serif" font-size="13" lengthAdjust="spacing" textLength="5.0718" x="294.1138" y="1335.0591">)</text></g><g class="message" data-participant-1="GEM" data-participant-2="PROMPTS"><polygon fill="#444444" points="959.1567,1365.2578,969.1567,1369.2578,959.1567,1373.2578,963.1567,1369.2578" style="stroke:#444444;stroke-width:1;"/><line style="stroke:#444444;stroke-width:1;" x1="741.1118" x2="965.1567" y1="1369.2578" y2="1369.2578"/><text fill="#000000" font-family="sans-serif" font-size="13" lengthAdjust="spacing" textLength="197.374" x="748.1118" y="1364.1919">_load_prompt("anti_injection")</text></g><g class="message" data-participant-1="GEM" data-participant-2="PROMPTS"><polygon fill="#444444" points="959.1567,1394.3906,969.1567,1398.3906,959.1567,1402.3906,963.1567,1398.3906" style="stroke:#444444;stroke-width:1;"/><line style="stroke:#444444;stroke-width:1;" x1="741.1118" x2="965.1567" y1="1398.3906" y2="1398.3906"/><text fill="#000000" font-family="sans-serif" font-size="13" lengthAdjust="spacing" textLength="155.7842" x="748.1118" y="1393.3247">_load_prompt("no_ack")</text></g><path d="M679.2271,1413.3906 L743.6699,1413.3906 L743.6699,1420.5234 L733.6699,1430.5234 L679.2271,1430.5234 L679.2271,1413.3906" fill="#EEEEEE" style="stroke:#000000;stroke-width:1.5;"/><rect fill="none" height="134.1406" style="stroke:#000000;stroke-width:1.5;" width="353.8862" x="679.2271" y="1413.3906"/><text fill="#000000" font-family="sans-serif" font-size="13" font-weight="bold" lengthAdjust="spacing" textLength="19.4429" x="694.2271" y="1426.4575">alt</text><text fill="#000000" font-family="sans-serif" font-size="11" font-weight="bold" lengthAdjust="spacing" textLength="63.25" x="758.6699" y="1425.6011">[deep_url]</text><g class="message" data-participant-1="GEM" data-participant-2="PROMPTS"><polygon fill="#444444" points="959.1567,1447.6563,969.1567,1451.6563,959.1567,1455.6563,963.1567,1451.6563" style="stroke:#444444;stroke-width:1;"/><line style="stroke:#444444;stroke-width:1;" x1="741.1118" x2="965.1567" y1="1451.6563" y2="1451.6563"/><text fill="#000000" font-family="sans-serif" font-size="13" lengthAdjust="spacing" textLength="206.0449" x="748.1118" y="1446.5903">_load_prompt("reply_deep_url")</text></g><line style="stroke:#000000;stroke-width:1;stroke-dasharray:2,2;" x1="679.2271" x2="1033.1133" y1="1460.6563" y2="1460.6563"/><text fill="#000000" font-family="sans-serif" font-size="11" font-weight="bold" lengthAdjust="spacing" textLength="78.3535" x="684.2271" y="1470.8667">[must_reply]</text><g class="message" data-participant-1="GEM" data-participant-2="PROMPTS"><polygon fill="#444444" points="959.1567,1491.5938,969.1567,1495.5938,959.1567,1499.5938,963.1567,1495.5938" style="stroke:#444444;stroke-width:1;"/><line style="stroke:#444444;stroke-width:1;" x1="741.1118" x2="965.1567" y1="1495.5938" y2="1495.5938"/><text fill="#000000" font-family="sans-serif" font-size="13" lengthAdjust="spacing" textLength="182.6221" x="748.1118" y="1490.5278">_load_prompt("reply_must")</text></g><line style="stroke:#000000;stroke-width:1;stroke-dasharray:2,2;" x1="679.2271" x2="1033.1133" y1="1504.5938" y2="1504.5938"/><text fill="#000000" font-family="sans-serif" font-size="11" font-weight="bold" lengthAdjust="spacing" textLength="49.5698" x="684.2271" y="1514.8042">[casual]</text><g class="message" data-participant-1="GEM" data-participant-2="PROMPTS"><polygon fill="#444444" points="959.1567,1535.5313,969.1567,1539.5313,959.1567,1543.5313,963.1567,1539.5313" style="stroke:#444444;stroke-width:1;"/><line style="stroke:#444444;stroke-width:1;" x1="741.1118" x2="965.1567" y1="1539.5313" y2="1539.5313"/><text fill="#000000" font-family="sans-serif" font-size="13" lengthAdjust="spacing" textLength="191.5532" x="748.1118" y="1534.4653">_load_prompt("reply_casual")</text></g><path d="M562,1559.5313 L562,1690.5313 L918,1690.5313 L918,1569.5313 L908,1559.5313 L562,1559.5313" fill="#FEFFDD" style="stroke:#181818;stroke-width:0.5;"/><path d="M908,1559.5313 L908,1569.5313 L918,1569.5313 L908,1559.5313" fill="#FEFFDD" style="stroke:#181818;stroke-width:0.5;"/><text fill="#000000" font-family="sans-serif" font-size="13" font-weight="bold" lengthAdjust="spacing" textLength="164.7345" x="568" y="1576.5981">stdin prompt &#32068;&#35037;&#38918;&#24207;&#65306;</text><text fill="#000000" font-family="sans-serif" font-size="13" lengthAdjust="spacing" textLength="335.8354" x="568" y="1591.731">1. sender_profile_block   &#8592; data/members/&lt;id&gt;.md</text><text fill="#000000" font-family="sans-serif" font-size="13" lengthAdjust="spacing" textLength="273.7871" x="568" y="1606.8638">2. memory_block           &#8592; SQLite sessions</text><text fill="#000000" font-family="sans-serif" font-size="13" lengthAdjust="spacing" textLength="254.3634" x="568" y="1621.9966">3. group_block            &#8592; &#34987;&#25552;&#21450;&#25104;&#21729; .md</text><text fill="#000000" font-family="sans-serif" font-size="13" lengthAdjust="spacing" textLength="272.0225" x="568" y="1637.1294">4. url_block              &#8592; Playwright &#25235;&#21462;&#20839;&#23481;</text><text fill="#000000" font-family="sans-serif" font-size="13" lengthAdjust="spacing" textLength="246.0289" x="568" y="1652.2622">5. history block          &#8592; &#26368;&#36817; 30 &#21063;&#23565;&#35441;</text><text fill="#000000" font-family="sans-serif" font-size="13" lengthAdjust="spacing" textLength="119.2661" x="568" y="1667.395">6. Latest message</text><text fill="#000000" font-family="sans-serif" font-size="13" lengthAdjust="spacing" textLength="264.126" x="568" y="1682.5278">7. instruction            &#8592; prompt/*.md &#32068;&#21512;</text><g class="message" data-participant-1="GEM" data-participant-2="SYS"><polygon fill="#444444" points="1062.9072,1730.8594,1072.9072,1734.8594,1062.9072,1738.8594,1066.9072,1734.8594" style="stroke:#444444;stroke-width:1;"/><line style="stroke:#444444;stroke-width:1;" x1="741.1118" x2="1068.9072" y1="1734.8594" y2="1734.8594"/><text fill="#000000" font-family="sans-serif" font-size="13" lengthAdjust="spacing" textLength="223.2344" x="748.1118" y="1729.7935">env GEMINI_SYSTEM_MD=&lt;path&gt;</text></g><path d="M1079,1700.5938 L1079,1755.5938 L1250,1755.5938 L1250,1710.5938 L1240,1700.5938 L1079,1700.5938" fill="#FEFFDD" style="stroke:#181818;stroke-width:0.5;"/><path d="M1240,1700.5938 L1240,1710.5938 L1250,1710.5938 L1240,1700.5938" fill="#FEFFDD" style="stroke:#181818;stroke-width:0.5;"/><text fill="#000000" font-family="sans-serif" font-size="13" lengthAdjust="spacing" textLength="124.795" x="1085" y="1717.6606">gemini CLI &#33258;&#21205;&#36617;&#20837;</text><text fill="#000000" font-family="sans-serif" font-size="13" lengthAdjust="spacing" textLength="124.9346" x="1085" y="1732.7935">.gemini/system.md</text><text fill="#000000" font-family="sans-serif" font-size="13" lengthAdjust="spacing" textLength="150.6172" x="1085" y="1747.9263">&#20316;&#28858; system instruction</text><g class="message" data-participant-1="GEM" data-participant-2="BOT"><polygon fill="#444444" points="298.1138,1778.125,288.1138,1782.125,298.1138,1786.125,294.1138,1782.125" style="stroke:#444444;stroke-width:1;"/><line style="stroke:#444444;stroke-width:1;" x1="292.1138" x2="740.1118" y1="1782.125" y2="1782.125"/><text fill="#000000" font-family="sans-serif" font-size="13" lengthAdjust="spacing" textLength="74.3501" x="304.1138" y="1777.0591">reply string</text></g><g class="message" data-participant-1="BOT" data-participant-2="DC"><polygon fill="#444444" points="81.6782,1807.2578,71.6782,1811.2578,81.6782,1815.2578,77.6782,1811.2578" style="stroke:#444444;stroke-width:1;"/><line style="stroke:#444444;stroke-width:1;" x1="75.6782" x2="286.1138" y1="1811.2578" y2="1811.2578"/><text fill="#000000" font-family="sans-serif" font-size="13" lengthAdjust="spacing" textLength="192.4355" x="87.6782" y="1806.1919">message.channel.send(reply)</text></g><g class="message" data-participant-1="BOT" data-participant-2="MEM"><polygon fill="#444444" points="508.1079,1836.3906,518.1079,1840.3906,508.1079,1844.3906,512.1079,1840.3906" style="stroke:#444444;stroke-width:1;"/><line style="stroke:#444444;stroke-width:1;" x1="287.1138" x2="514.1079" y1="1840.3906" y2="1840.3906"/><text fill="#000000" font-family="sans-serif" font-size="13" lengthAdjust="spacing" textLength="127.7974" x="294.1138" y="1835.3247">log_bot_exchange()</text></g><!--SRC=[ZLPRRnj557xVNt5aNjOXSKgRjA6gMtAnGuJJcYOyeBeQZNV7zZIxisPdtDH2I0XwHoY1Ga5LoXsXWa3mW2YbYF-2OZTvuYzmPlRYNQTLapmaE-SxbpddE-UCuifZi10eM0o4ObSKp4l9_ARNXweNR88T2E8pAMcRmR_NFuPbvdF1YvObDxZeqf3wqAJEHZiCUi9T3BmWX1Ugy_etWv3ihHuJ3eEtBO3vC0msO-JCp0oUr7YBrRXW2q7eiZ0MpStDeQXEGyKTtgL2vQIpixDZql4WAfKg8iu6YXqGLQlLfSg9H9erMtrvVkxehFMEPNL7fg6mnAM3i8OO9QC0LCBIOXxN35IfspUYXNFhUPdF_23iexWXxBNNQroneW6kLbOF09iib8aXb2_a0MrJ0cF9ePv7ecyxChSyRguR1dvNJK-KVDS0wkVFhTRNrooNAjgaaa6X51cORWZPbuhv2NBjpInA_pSTnuRGKzmzdG1NgokrIXQBbVSyEJs1kBNNLcgrrAB-iAno6LugmJ9L39mESpOasCFF7WntleIGgLueYb0kMqkBC7LQfn5EmYZjTlotQ6b92k0IEUQrpXYAHaRo09y9nGF1t3F9EURLA1B9FSrDrrvQ8FNvzLUBba1QGCZR7NKIzkz_aIZ3xiDFzk_lxF_r-Ux3dv_foQDIaKqg2PBX3DZ7ZqWONFkXs10X5MxWGuZNpiMfqt6q1Ej1u87BPPSgfmFsuFrhy4hisEGZvwJ5D2Xa3WA8Xws3AUnmgP1XQMPCidL00NM9gGXncNH2taMOjFFNJ2kMrAiXclqknL4WYUVv9q65FPQF0JjACQ8mRE9utEv95X9Vjl6c-d8Hfs1myxlXtJ_0e8n2YBOjwYbp16Lz1-GmzcAkB9BHqEaGz2xn_fAqWf14I8mxnI95D5IuQ4NsF2KJKIABCymy96NiBwxsGOSg8O9TX6b0ewFlGvYz56omAImj5-sHwQTKe1cuVRkGGHUUQLsuXXh7Ikbafiba7j4XYhwDqKUjIM8Ms3ej-CbThCUBIJwZ6MIheCkTRFtHn8KwyXRYxf8N6-B2kaPDXSn3mhgGbEAYbResNMzwotZ6GTF2Z4aS9ohZFkycFe-n3L66t5o9fugLkTw2xb9NDqAh7rzIaikSQbgEI7SWA9rpy7KlOV2H6g1bC27cOzAxeKkSACawfBrlVXfkRG-sRWzlRW_kVFtatbM80xRoBV36-HevNocrk70rDJCjOECsaGuL4DS3U0jmU-3Sqjn7FGajlP56PCaqDkc5NXIFKCX6l2pKFThVD06ZHYxw57j5fPoPAK7TZFqHPUnqQsIdoRAXJtQBD0GaCKz2Sg59VHgHPtAiX4QKo-1aDgH8iuSZCMHT3xLTnhhwVWs1RmZj7gE8Ln96GaohH2lBBk3-ueIBIypHKn0xvJbu4H1SzOKenuaZpDTpr4na9C6ZkcdiKT27jQ0r4cs7oXuzjEy8hNLr0KrvWyj8MBtC0IOcf7AvW4W7dln-TU_R-_jVNHyyslhlyRs92OJWEisNXJIzmDa0m4Mp_VGM0xrqefgcuEH7AqLlbBJl4O-JA2hqEDpWnve68X_8HCs60ngHpeZLCBnzPx1r5pVbu9S_KM-sb7REcAxM6-wyk_VFHt3i20nktHZy-k7UWzzGvtW9QZYhHcCCpqwKW0k9oyjGQDn_vcsaqphOlgahOFeh9IU-Wh1gJ5pMrLWvkqBmOBsoIbQNogTmLtTEZmsJQEyjrbPWxyQFWmy-tNjyQt3j-uP8Nbdf6wiXTl_UUVBU8uXEid6cpkDDgqa2ADNR9RlxudkMd0uLWdabpG7Re8lv1U45RVqU8UoAXhRrJliV]--></g></svg>